<svg xmlns="http://www.w3.org/2000/svg" width="420.501" height="108.142" viewBox="0 0 420.501 108.142"><g id="Gruppe_1" data-name="Gruppe 1" transform="translate(-193.898 -343.527)"><path id="Pfad_1" data-name="Pfad 1" d="M263.655,34.611V17.478H229.036C219.08,17.478,214.1,22,214.1,31.167V57.734c0,.611,0,1.194.03,1.8a26.591,26.591,0,0,0,25.143,25.329c.9.047,1.756.038,2.664.038H255.9a1.63,1.63,0,0,0,1.525-1.128l2.3-7.166a1.631,1.631,0,0,0-1.543-2.113v0h-16.1c-.861,0-1.752.021-2.611-.054a13.7,13.7,0,0,1-12.426-12.564c-.068-.885-.043-1.794-.043-2.68V32.751c0-3.281,1.47-4.865,4.3-4.865h19.686v6.725a1.629,1.629,0,0,0,1.629,1.616h9.412a1.629,1.629,0,0,0,1.629-1.616m-81.687,14.1h21.891v36.2H169.24c-9.956,0-14.934-4.525-14.934-13.689V44.658c0-.611,0-1.193.03-1.8a26.591,26.591,0,0,1,25.143-25.329c.9-.047,1.757-.039,2.664-.039h15.965a3.283,3.283,0,0,1,.552.026,1.624,1.624,0,0,1,1.268,2.137l-2.3,7.176a1.629,1.629,0,0,1-1.492,1.07H182.284c-.862,0-1.753-.021-2.612.055a13.7,13.7,0,0,0-12.426,12.563c-.068.885-.043,1.794-.043,2.681V69.642c0,3.281,1.47,4.864,4.3,4.864h19.685V58.894h-9.232a1.63,1.63,0,0,1-1.629-1.588V50.3a1.629,1.629,0,0,1,1.629-1.587h.012ZM332.82,83.33V27.9H329.85a1.63,1.63,0,0,1-1.444-1.081L326.161,19.5a1.659,1.659,0,0,1-.047-.389,1.629,1.629,0,0,1,1.559-1.628H366c10.974,0,16.4,4.866,16.4,14.481V46.223c0,9.39-4.978,14.028-14.934,14.028H353.682a1.63,1.63,0,0,1-1.629-1.6V51.444a1.63,1.63,0,0,1,1.569-1.6H365.43c2.715,0,4.072-1.471,4.072-4.526V32.647c0-3.168-1.7-4.752-4.978-4.752H345.6V83.288a1.629,1.629,0,0,1-1.543,1.627h-9.7a1.63,1.63,0,0,1-1.542-1.586m-66.5-.524,0-.007,20.93-65.312h16.631l20.052,65.3c.008.026.016.052.022.079a1.631,1.631,0,0,1-1.542,2.048h-9.647a1.629,1.629,0,0,1-1.527-1.152l-3.85-13.216h-14.9a3.8,3.8,0,0,1-.392-.012,1.631,1.631,0,0,1-1.4-2.056l2.429-7.295a1.584,1.584,0,0,1,1.423-1.046h10.523l-9.051-31.452c-5.537,18.545-11.542,36.729-16.911,55.054a1.632,1.632,0,0,1-1.54,1.174h-9.72a1.632,1.632,0,0,1-1.531-2.11" transform="translate(185.363 342.59)" fill="#112b5f" fill-rule="evenodd"></path><path id="Vereinigungsmenge_1" data-name="Vereinigungsmenge 1" d="M38.783,10.512c-.274-.021-.554-.049-.842-.084s-.575-.077-.862-.129-.564-.107-.829-.167V8.641q.874.207,1.684.322a10.31,10.31,0,0,0,1.454.115q1.955,0,1.954-1.221a1.122,1.122,0,0,0-.135-.579,1.243,1.243,0,0,0-.379-.4,2.39,2.39,0,0,0-.6-.283q-.36-.115-.8-.218a8.55,8.55,0,0,1-1.358-.418,3.238,3.238,0,0,1-.951-.585,2.11,2.11,0,0,1-.559-.817,3.1,3.1,0,0,1-.181-1.112,2.546,2.546,0,0,1,.251-1.139,2.435,2.435,0,0,1,.713-.862A3.434,3.434,0,0,1,38.468.9a5.383,5.383,0,0,1,1.5-.193,10.251,10.251,0,0,1,1.229.077q.637.077,1.537.271V2.532a9.924,9.924,0,0,0-1.325-.276,9.291,9.291,0,0,0-1.261-.1,2.481,2.481,0,0,0-1.382.328,1.041,1.041,0,0,0-.494.92,1.224,1.224,0,0,0,.109.527,1.083,1.083,0,0,0,.34.405,2.5,2.5,0,0,0,.6.315,7.533,7.533,0,0,0,.914.271,9,9,0,0,1,1.26.386,3.406,3.406,0,0,1,.938.54,2.152,2.152,0,0,1,.592.777,2.68,2.68,0,0,1,.205,1.1,2.482,2.482,0,0,1-.938,2.1,4.471,4.471,0,0,1-2.752.72Q39.194,10.544,38.783,10.512Zm107.272.007q-.323-.013-.7-.051c-.252-.026-.527-.063-.822-.109s-.624-.109-.985-.186V0h1.788V4.193a3.163,3.163,0,0,1,4.327-.014A3.9,3.9,0,0,1,150.4,6.79a3.7,3.7,0,0,1-.983,2.771,3.8,3.8,0,0,1-2.733.971C146.479,10.532,146.269,10.528,146.055,10.519ZM145.8,5.047a1.266,1.266,0,0,0-.462,1.074V9.168a5.766,5.766,0,0,0,.6.084q.34.032.726.032a3,3,0,0,0,.888-.116,1.244,1.244,0,0,0,.6-.391,1.776,1.776,0,0,0,.342-.727,4.9,4.9,0,0,0,.109-1.118,5.175,5.175,0,0,0-.09-1.055,1.775,1.775,0,0,0-.283-.688,1.084,1.084,0,0,0-.5-.38,2.144,2.144,0,0,0-.746-.115A1.9,1.9,0,0,0,145.8,5.047ZM117.809,9.322a5.163,5.163,0,0,1-1.15-3.677q0-4.912,4.849-4.913a12.059,12.059,0,0,1,1.317.078,8.788,8.788,0,0,1,1.293.232V2.52q-.811-.154-1.4-.218a9.993,9.993,0,0,0-1.074-.065,4.892,4.892,0,0,0-1.453.187,2.12,2.12,0,0,0-.958.591A2.438,2.438,0,0,0,118.7,4.07a6.4,6.4,0,0,0-.168,1.575A6.765,6.765,0,0,0,118.69,7.2a2.584,2.584,0,0,0,.488,1.049,1.922,1.922,0,0,0,.881.591,4.111,4.111,0,0,0,1.319.186c.154,0,.334-.006.54-.018s.411-.032.617-.058V5.555h1.684v4.54a14.243,14.243,0,0,1-1.511.315,9.228,9.228,0,0,1-1.382.122A4.646,4.646,0,0,1,117.809,9.322Zm-17.36,0A5.163,5.163,0,0,1,99.3,5.645q0-4.912,4.849-4.913a12.059,12.059,0,0,1,1.317.078,8.788,8.788,0,0,1,1.293.232V2.52q-.811-.154-1.4-.218a9.994,9.994,0,0,0-1.074-.065,4.891,4.891,0,0,0-1.453.187,2.12,2.12,0,0,0-.958.591,2.437,2.437,0,0,0-.534,1.056,6.4,6.4,0,0,0-.168,1.575A6.765,6.765,0,0,0,101.33,7.2a2.584,2.584,0,0,0,.488,1.049,1.922,1.922,0,0,0,.881.591,4.112,4.112,0,0,0,1.319.186c.154,0,.334-.006.54-.018s.411-.032.617-.058V5.555h1.684v4.54a14.235,14.235,0,0,1-1.511.315,9.222,9.222,0,0,1-1.382.122A4.646,4.646,0,0,1,100.449,9.322ZM1.132,9.329A5.207,5.207,0,0,1,0,5.645a5.3,5.3,0,0,1,1.118-3.7A4.377,4.377,0,0,1,4.5.733q.438,0,.985.051t1.2.154V2.417c-.24-.034-.455-.062-.643-.083s-.359-.039-.515-.051-.3-.023-.431-.032-.263-.014-.391-.014a4.234,4.234,0,0,0-1.318.18A1.869,1.869,0,0,0,2.507,3a2.562,2.562,0,0,0-.488,1.054,6.94,6.94,0,0,0-.154,1.589,6.787,6.787,0,0,0,.154,1.569A2.6,2.6,0,0,0,2.5,8.262a1.831,1.831,0,0,0,.855.585,4,4,0,0,0,1.286.179c.137,0,.3-.006.488-.018s.377-.028.566-.046.37-.041.547-.071.323-.057.443-.083v1.465a8.067,8.067,0,0,1-1.028.187,8.765,8.765,0,0,1-1.067.071A4.537,4.537,0,0,1,1.132,9.329Zm48.48.952a2.984,2.984,0,0,1-1.279-.733,2.834,2.834,0,0,1-.713-1.254,6.52,6.52,0,0,1-.219-1.8V.862h1.813V6.52a2.721,2.721,0,0,0,.565,1.91,2.862,2.862,0,0,0,3.492.006,2.727,2.727,0,0,0,.559-1.916V.862h1.827V6.494a6.356,6.356,0,0,1-.226,1.8,2.773,2.773,0,0,1-1.986,1.987,7.819,7.819,0,0,1-3.833,0ZM11.465,9.291a5.187,5.187,0,0,1-1.139-3.646A5.231,5.231,0,0,1,11.465,1.98a4.262,4.262,0,0,1,3.3-1.235,4.25,4.25,0,0,1,3.3,1.241A5.236,5.236,0,0,1,19.2,5.645a5.19,5.19,0,0,1-1.139,3.639,4.264,4.264,0,0,1-3.3,1.235A4.273,4.273,0,0,1,11.465,9.291ZM13.6,2.418a1.844,1.844,0,0,0-.8.6,2.716,2.716,0,0,0-.463,1.061,7.049,7.049,0,0,0-.148,1.562A6.967,6.967,0,0,0,12.339,7.2,2.777,2.777,0,0,0,12.8,8.255a1.756,1.756,0,0,0,.8.6,3.3,3.3,0,0,0,1.171.186,3.285,3.285,0,0,0,1.17-.186,1.759,1.759,0,0,0,.8-.6A2.781,2.781,0,0,0,17.187,7.2a7.049,7.049,0,0,0,.147-1.556,4.356,4.356,0,0,0-.616-2.618,2.312,2.312,0,0,0-1.955-.8A3.131,3.131,0,0,0,13.6,2.418ZM161.19,10.39V6.237h-4.6V10.39H154.76V.874h1.826V4.8h4.6V.874H163V10.39Zm-23.9,0V5.863a1.226,1.226,0,0,0-.225-.828.9.9,0,0,0-.7-.251,2.53,2.53,0,0,0-.739.135,4.508,4.508,0,0,0-.881.392v5.08h-1.774V5.863a1.25,1.25,0,0,0-.219-.828.89.89,0,0,0-.708-.251,2.417,2.417,0,0,0-.746.147,5.274,5.274,0,0,0-.874.392V10.39h-1.775V3.446h1.479l.1.8h.076a9.235,9.235,0,0,1,1.369-.694,3.222,3.222,0,0,1,1.164-.232,1.716,1.716,0,0,1,1.711.939h.051a8.348,8.348,0,0,1,1.382-.708,3.293,3.293,0,0,1,1.164-.232,1.941,1.941,0,0,1,1.414.488,1.9,1.9,0,0,1,.5,1.428V10.39Zm-43.875,0-4.3-5.633-.8-1.157h-.1v6.79H86.607V.874H88.1l4.334,5.7.759,1.106h.1V.874H94.9V10.39Zm-13.477,0V.874h1.826V10.39Zm-8.783,0V2.327H68.27V.874h7.586V2.327H72.977V10.39Zm-10.737,0V.874h1.826V8.963h4.167V10.39Zm-30.013,0L26.1,4.757l-.8-1.157h-.1v6.79H23.6V.874h1.492l4.334,5.7.759,1.106h.1V.874h1.609V10.39Z" transform="translate(450.896 440.624)" fill="#747474" stroke="rgba(0,0,0,0)" stroke-width="1"></path><path id="Pfad_15" data-name="Pfad 15" d="M60.577,50.175A20.369,20.369,0,1,1,80.945,70.348,20.27,20.27,0,0,1,60.577,50.175M0,50.175A20.369,20.369,0,1,1,20.369,70.348,20.272,20.272,0,0,1,0,50.175m50.657-9.825A20.175,20.175,0,1,1,71.025,20.175,20.272,20.272,0,0,1,50.657,40.349m0,60A20.175,20.175,0,1,1,71.025,80.173a20.272,20.272,0,0,1-20.368,20.174" transform="translate(193.898 343.527)" fill="#d31c12" fill-rule="evenodd"></path><path id="Pfad_16" data-name="Pfad 16" d="M91.844,50.173a20.369,20.369,0,1,1,20.369,20.174A20.271,20.271,0,0,1,91.844,50.173m-60.577,0A20.369,20.369,0,1,1,51.636,70.347,20.272,20.272,0,0,1,31.267,50.173m50.657-9.825a20.175,20.175,0,1,1,20.369-20.174A20.272,20.272,0,0,1,81.924,40.348m0,60a20.175,20.175,0,1,1,20.369-20.174,20.272,20.272,0,0,1-20.369,20.174" transform="translate(192.933 343.527)" fill="#b2b2b2" fill-rule="evenodd"></path><path id="Pfad_17" data-name="Pfad 17" d="M91.843,50.386a19.944,19.944,0,0,1,5.215-13.459,19.977,19.977,0,0,1,.006,26.923,19.948,19.948,0,0,1-5.221-13.465M66.776,36.911a19.978,19.978,0,0,1-.006,26.956,19.978,19.978,0,0,1,.006-26.956M38,35.418a20.537,20.537,0,0,1,27.248-.012A20.534,20.534,0,0,1,38,35.418M31.267,50.386a19.944,19.944,0,0,1,5.215-13.459,19.975,19.975,0,0,1,0,26.923,19.943,19.943,0,0,1-5.22-13.465M66.776,33.9A19.977,19.977,0,0,1,66.77,6.973,19.974,19.974,0,0,1,66.776,33.9m15.149,6.679A20.415,20.415,0,0,1,68.3,35.405a20.534,20.534,0,0,1,27.232.012,20.419,20.419,0,0,1-13.609,5.158m-13.631,24.8a20.534,20.534,0,0,1,27.248-.012,20.537,20.537,0,0,1-27.248.012M66.77,66.881a19.975,19.975,0,0,1,.006,26.924,19.978,19.978,0,0,1-.006-26.924M38.012,65.36a20.535,20.535,0,0,1,27.233.012,20.535,20.535,0,0,1-27.233-.012" transform="translate(192.933 343.312)" fill="#112b5f" fill-rule="evenodd"></path></g></svg>